<?xml version="1.0" encoding="utf-8"?>
<!-- Generator: Adobe Illustrator 26.0.1, SVG Export Plug-In . SVG Version: 6.00 Build 0)  -->
<svg version="1.1" id="Layer_1" xmlns="http://www.w3.org/2000/svg" xmlns:xlink="http://www.w3.org/1999/xlink" x="0px" y="0px"
	 viewBox="0 0 100 100" style="enable-background:new 0 0 100 100;" xml:space="preserve">
<style type="text/css">
	.st0{fill:#333333;}
</style>
<path class="st0" d="M36.5,82.2l8.3-25.9L33.3,54c-1.1-0.3-1.7-1.3-1.5-2.4c0.1-0.3,0.2-0.6,0.5-0.9l29.5-31.8
	c0.4-0.3,1.1-0.3,1.4,0.2c0.2,0.2,0.3,0.5,0.2,0.8l-8.2,25.9l11.5,2.3c1.1,0.3,1.7,1.3,1.5,2.4c-0.1,0.3-0.2,0.6-0.5,0.9L38.2,83.2
	c-0.4,0.4-1,0.5-1.4,0.1C36.5,83,36.3,82.6,36.5,82.2z"/>
</svg>
