<?xml version="1.0" encoding="utf-8"?>
<!-- Generator: Adobe Illustrator 26.0.1, SVG Export Plug-In . SVG Version: 6.00 Build 0)  -->
<svg version="1.1" id="Layer_1" xmlns="http://www.w3.org/2000/svg" xmlns:xlink="http://www.w3.org/1999/xlink" x="0px" y="0px"
	 viewBox="0 0 100 100" style="enable-background:new 0 0 100 100;" xml:space="preserve">
<style type="text/css">
	.st0{fill:#333333;}
</style>
<path class="st0" d="M79,55.1L44.9,21c-0.7-0.6-1.5-1-2.4-1H23.3c-1.8,0.1-3.3,1.6-3.3,3.4v19.1c0,0.9,0.4,1.7,1,2.3L55.2,79
	c1.3,1.3,3.4,1.3,4.7,0c0,0,0,0,0,0L79,59.9c1.3-1.3,1.4-3.3,0.1-4.7C79.1,55.2,79,55.1,79,55.1z M30.3,35c-2.7,0.1-4.8-2-4.9-4.7
	c-0.1-2.7,2-4.8,4.7-4.9c2.7-0.1,4.8,2,4.9,4.7c0,0,0,0.1,0,0.1C35,32.8,32.9,34.9,30.3,35z"/>
</svg>
