<?xml version="1.0" encoding="utf-8"?>
<!-- Generator: Adobe Illustrator 26.0.1, SVG Export Plug-In . SVG Version: 6.00 Build 0)  -->
<svg version="1.1" id="Layer_1" xmlns="http://www.w3.org/2000/svg" xmlns:xlink="http://www.w3.org/1999/xlink" x="0px" y="0px"
	 viewBox="0 0 113.7 100" style="enable-background:new 0 0 113.7 100;" xml:space="preserve">
<style type="text/css">
	.st0{fill:#333333;}
</style>
<path class="st0" d="M10.9,42.7h10.9c0.6,0,1,0.4,1,1v4.5c0,0.6-0.4,1-1,1H10.9c-0.6,0-1-0.4-1-1v-4.5C9.9,43.1,10.3,42.7,10.9,42.7
	z"/>
<path class="st0" d="M4.4,55.6h17.4c0.6,0,1,0.4,1,1v4.5c0,0.6-0.4,1-1,1H4.4c-0.6,0-1-0.4-1-1v-4.5C3.4,56,3.8,55.6,4.4,55.6z"/>
<path class="st0" d="M10.9,68.5h20.6c0.6,0,1,0.4,1,1v4.4c0,0.6-0.4,1-1,1H10.9c-0.6,0-1-0.4-1-1v-4.4C9.9,68.9,10.3,68.5,10.9,68.5
	z"/>
<path class="st0" d="M99.2,41.9l-5.3-15.5c-0.2-0.9-1-1.5-1.9-1.4H35.6c-1.6-0.1-2.9,1.2-3,2.8c0,0.1,0,0.1,0,0.2v33.9
	c-0.1,1.6,1.2,2.9,2.8,3c0.1,0,0.1,0,0.2,0h4.3C39.9,70.5,44.4,75,50,75c5.6,0,10.1-4.5,10.1-10.1h22c-0.6,5.6,3.5,10.5,9,11.1
	s10.5-3.5,11.1-9c0.1-0.7,0.1-1.3,0-2h5.1c1.7,0,3-1.3,3-3v-16c0-1-0.7-1.8-1.6-2L99.2,41.9z M50,69.8c-2.6,0-4.7-2.1-4.8-4.7
	c0.4-2.6,2.8-4.4,5.4-4.1c2.1,0.3,3.8,2,4.1,4.1C54.7,67.7,52.6,69.8,50,69.8z M78,40.1v-8.7c-0.1-0.5,0.3-0.9,0.8-1
	c0.1,0,0.1,0,0.2,0h10.7c0.4,0,0.8,0.3,0.9,0.7l3,9.7c0.2,0.5-0.1,1.1-0.7,1.3c-0.1,0-0.2,0-0.2,0H80C78.9,42.1,78,41.2,78,40.1z
	 M92.1,69.8c-2.6-0.1-4.6-2.1-4.7-4.7c-0.1-2.7,2-4.8,4.7-4.9c2.7-0.1,4.8,2,4.9,4.7c0.1,2.7-2,4.8-4.7,4.9
	C92.2,69.8,92.2,69.8,92.1,69.8z"/>
<g>
	<defs>
		<rect id="SVGID_1_" x="-345.2" y="-498.3" width="1400" height="431.2"/>
	</defs>
	<clipPath id="SVGID_00000124878472945668896440000010771546165099230339_">
		<use xlink:href="#SVGID_1_"  style="overflow:visible;"/>
	</clipPath>
</g>
</svg>
